<svg xmlns="http://www.w3.org/2000/svg" viewBox="0 0 64 80" x="0px" y="0px" fill="#ffffff">
<title></title>
<g data-name="08-robotic hand">
<path d="M58.127,28.008l-3.51-.449c.511-.087,1.026-.189,1.536-.316l1.09-.273a1,1,0,0,0,.589-1.525l-2-3A1,1,0,0,0,55,22H50.555a13.007,13.007,0,0,0,3.152-2.293,1,1,0,0,0,0-1.414l-3-3a1,1,0,0,0-1.1-.212l-4.541,1.946a18.8,18.8,0,0,0,2.3-4.426l1.219-.813A12.022,12.022,0,0,0,52.6,7.275h0L54.228,4.84a2.577,2.577,0,0,0-3.967-3.251L47.194,4.656,42.023,8.535l0,.006a.983.983,0,0,0-.3.347c-.419.837-.882,1.667-1.375,2.466a30.713,30.713,0,0,1-2.785,3.735l-.142.171a.994.994,0,0,0-1.306.419l-.85,1.568-1.718.858a1.01,1.01,0,0,0-.385.34L31.205,21.39l-1.675,1.9-.287-.287a1,1,0,0,0-1.222-.151L28,22.869a2.811,2.811,0,0,0-.165-.893,5.432,5.432,0,0,0,.682-2.066,15.277,15.277,0,0,0-.625-6.971,1,1,0,0,0-1.265-.632L22.7,13.614a1,1,0,0,0-.632.632l-.723,2.168a6.846,6.846,0,0,1-1.65,2.669,1,1,0,0,0,0,1.415L22.01,22.81c0,.032-.01.063-.01.1v3.56l-.515.309a1,1,0,0,0-.485.857v5.347l-.039.044a1.013,1.013,0,0,0-.152.229c-.014.03-.018.063-.03.094a1,1,0,0,0-.052.163.755.755,0,0,0,0,.095.922.922,0,0,0-.007.174,36.474,36.474,0,0,0,.063.266h0l.021.053.775,2a.978.978,0,0,0-.572.98l.183,2.257-2.01,1.005a1,1,0,0,0-.385.34L16.177,44.6a1,1,0,0,0,.171,1.3l1.433,1.264L15.9,50h-.825a1,1,0,0,0-.832.445l-5.333,8a.964.964,0,0,0-.143.378l-3.47,3.47A1,1,0,0,0,6,64H31a1,1,0,0,0,.97-1.243l-1-3.99.126-.254a3.682,3.682,0,0,0,1.523.331,4.919,4.919,0,0,0,2.524-.766,8.373,8.373,0,0,0,3.125-3.621,8.881,8.881,0,0,0,.855-3.414l5.016-6.133,3.821-4.024.762-.8a1.038,1.038,0,0,0,.14-.218A.985.985,0,0,0,49,39.4V37.964l6.157-.976a1,1,0,0,0,.738-.541l1.629-3.259c.213-.064.42-.115.639-.188l.153-.051A1,1,0,0,0,59,32V29A1,1,0,0,0,58.127,28.008ZM57,31.272a16,16,0,0,1-3.951.7q-.664-1.359-1.258-2.758L57,29.88ZM43.785,42.38l-.007-.007c-.011-.013-.025-.021-.035-.033a1.085,1.085,0,0,0-.163-.155c-.017-.012-.038-.018-.056-.029a1.012,1.012,0,0,0-.093-.047.971.971,0,0,0-.1-.053c-.013,0-.027,0-.04-.007a.77.77,0,0,0-.086-.017c-.034-.007-.066-.016-.1-.02a.994.994,0,0,0-.347.018l-5.641,1.41L35,42.382V41.5a1,1,0,0,0-.293-.707l-1.5-1.5A1,1,0,0,0,32.5,39H31.236l-5.789-2.9A1,1,0,0,0,25,36H23.684l-.82-2.112.862-.979a3.994,3.994,0,0,1,1.62.174,35.259,35.259,0,0,1,8.314,3.626l1.914,1.148a.991.991,0,0,0,.514.143h5.228a1,1,0,0,0,.707-.293l3.342-3.341,2.386,1.59-.449.438a.987.987,0,0,0-.2.3.718.718,0,0,0-.034.1.941.941,0,0,0-.051.252c0,.022-.013.041-.013.063V39ZM38.7,48.407a3.9,3.9,0,0,0-1.922-2.093,3.826,3.826,0,0,0-2.508-.242l-.66-1.32a1,1,0,0,0-.377-.408l-6.556-3.963a.979.979,0,0,0-.2-.092l-3.294-1.1-.1-1.19h1.68l5.789,2.9A1,1,0,0,0,31,41h1.086l.914.914V43a1,1,0,0,0,.553.9l3,1.5a.983.983,0,0,0,.4.094c.016,0,.029.011.045.011a1,1,0,0,0,.243-.03l4.849-1.212ZM55.379,25.372a24.467,24.467,0,0,1-4.876.55L49.8,24h4.666Zm-5.608-8.186,1.782,1.781a11.038,11.038,0,0,1-3.467,1.946L44.955,19.25Zm-2.292-7.062-.935.623-2.19-1.461,3.678-2.758,2.265.755A10.045,10.045,0,0,1,47.479,10.124ZM51.675,3a.581.581,0,0,1,.667-.107.575.575,0,0,1,.221.835l-1.2,1.8L49.7,4.977Zm-9.62,9.4c.327-.53.641-1.072.94-1.621l2.342,1.562a17.305,17.305,0,0,1-3.368,5.317l-2.733-1.452A32.054,32.054,0,0,0,42.055,12.405Zm-9.3,10.256a1.035,1.035,0,0,0,.082-.106l1.853-2.779,1.762-.881a1.007,1.007,0,0,0,.432-.418l.527-.973,9.787,5.2,1.72,4.69c.653,1.781,1.4,3.546,2.23,5.257l-1.928,1.878-3.423-2.282a1,1,0,0,0-1.262.125L40.9,36H36.365l-1.676-1.006A37.266,37.266,0,0,0,25.9,31.162c-.183-.053-.354-.089-.526-.126ZM23,30.707V28.2l4.684-2.811Zm.245-13.661.564-1.693,2.462-.82a13.256,13.256,0,0,1,.262,5.092,4.6,4.6,0,0,1-.159.722,2.8,2.8,0,0,0-1.218-.285h-.312a2.828,2.828,0,0,0-1.961.793L21.778,19.75A8.88,8.88,0,0,0,23.245,17.046ZM24,22.906a.845.845,0,0,1,.844-.844h.312a.845.845,0,0,1,.844.844v1.16l-2,1.2ZM20.308,42.013l2.006-1,3.422,1.141,6.213,3.755.5.992a8.348,8.348,0,0,0-2.722,3.139L24.95,46.219A1,1,0,0,0,24.325,46H19.476l-1.15-1.014ZM19.633,48h4.342l4.982,3.986a8.349,8.349,0,0,0-.267,1.558l-5.064-3.376A1,1,0,0,0,23.071,50H18.3Zm-4.027,4h7.163l6.255,4.17a4.6,4.6,0,0,0,.506,1.009L29.12,58H26.68a1.016,1.016,0,0,0,.053-.432,1,1,0,0,0-.441-.734l-4-2.666A1,1,0,0,0,21.738,54h-4a1,1,0,0,0-.832.445L14.536,58h-2.93Zm8.384,6H16.94l1.333-2h3.162l2.733,1.822ZM8.414,62l2-2H29.219l.5,2Zm28.048-8.4a6.459,6.459,0,0,1-2.35,2.76,2.45,2.45,0,0,1-2.216.32,2.454,2.454,0,0,1-1.167-1.912,6.908,6.908,0,0,1,2.979-6.33,3.048,3.048,0,0,1,1.494-.475,1.679,1.679,0,0,1,.723.156,2.449,2.449,0,0,1,1.166,1.912c.015.1.01.21.018.314l-.014.017.016.013A6.628,6.628,0,0,1,36.462,53.605ZM54.335,35.093l-3.382.536,1.688-1.646a17.376,17.376,0,0,0,2.35-.2Z"/>
</g>
<text x="0" y="79" fill="#000000" font-size="5px" font-weight="bold" font-family="'Helvetica Neue', Helvetica, Arial-Unicode, Arial, Sans-serif">
</text>
<text x="0" y="84" fill="#000000" font-size="5px" font-weight="bold" font-family="'Helvetica Neue', Helvetica, Arial-Unicode, Arial, Sans-serif">
</text>
</svg>